<svg width="120" height="120" viewBox="0 0 120 120" fill="none" xmlns="http://www.w3.org/2000/svg">
<path d="M96 5.45454H24C19.2261 5.45454 14.6477 6.89123 11.2721 9.44854C7.89642 12.0059 6 15.4743 6 19.0909V100.909C6 104.526 7.89642 107.994 11.2721 110.551C14.6477 113.109 19.2261 114.545 24 114.545H96C100.774 114.545 105.352 113.109 108.728 110.551C112.104 107.994 114 104.526 114 100.909V19.0909C114 15.4743 112.104 12.0059 108.728 9.44854C105.352 6.89123 100.774 5.45454 96 5.45454ZM33.513 32.7273H86.487L87 46.3636H82.5C80.88 38.8909 79.296 38.2364 67.254 37.9432L64.572 37.875V79.3977C64.572 82.6023 65.472 83.3659 72.699 83.8636V87.2727H47.31V83.8636C54.501 83.3659 55.392 82.6091 55.392 79.4045V37.875L52.755 37.9432C40.704 38.2364 39.12 38.8977 37.5 46.3636H33L33.513 32.7273Z" fill="#3056D3"/>
</svg>
