<svg width="80" height="80" viewBox="0 0 80 80" fill="none" xmlns="http://www.w3.org/2000/svg">
<path d="M64 3.63636H16C12.8174 3.63636 9.76515 4.59415 7.51472 6.29903C5.26428 8.00391 4 10.3162 4 12.7273V67.2727C4 69.6838 5.26428 71.9961 7.51472 73.701C9.76515 75.4058 12.8174 76.3636 16 76.3636H64C67.1826 76.3636 70.2348 75.4058 72.4853 73.701C74.7357 71.9961 76 69.6838 76 67.2727V12.7273C76 10.3162 74.7357 8.00391 72.4853 6.29903C70.2348 4.59415 67.1826 3.63636 64 3.63636ZM22.342 21.8182H57.658L58 30.9091H55C53.92 25.9273 52.864 25.4909 44.836 25.2955L43.048 25.25V52.9318C43.048 55.0682 43.648 55.5773 48.466 55.9091V58.1818H31.54V55.9091C36.334 55.5773 36.928 55.0727 36.928 52.9364V25.25L35.17 25.2955C27.136 25.4909 26.08 25.9318 25 30.9091H22L22.342 21.8182Z" fill="#3056D3"/>
</svg>
