<svg width="30" height="30" viewBox="0 0 30 30" fill="none" xmlns="http://www.w3.org/2000/svg">
<path d="M24 1.36364H6C4.80653 1.36364 3.66193 1.72281 2.81802 2.36214C1.97411 3.00146 1.5 3.86858 1.5 4.77273V25.2273C1.5 26.1314 1.97411 26.9985 2.81802 27.6379C3.66193 28.2772 4.80653 28.6364 6 28.6364H24C25.1935 28.6364 26.3381 28.2772 27.182 27.6379C28.0259 26.9985 28.5 26.1314 28.5 25.2273V4.77273C28.5 3.86858 28.0259 3.00146 27.182 2.36214C26.3381 1.72281 25.1935 1.36364 24 1.36364ZM8.37825 8.18182H21.6218L21.75 11.5909H20.625C20.22 9.72273 19.824 9.55909 16.8135 9.4858L16.143 9.46875V19.8494C16.143 20.6506 16.368 20.8415 18.1748 20.9659V21.8182H11.8275V20.9659C13.6253 20.8415 13.848 20.6523 13.848 19.8511V9.46875L13.1888 9.4858C10.176 9.55909 9.78 9.72443 9.375 11.5909H8.25L8.37825 8.18182Z" fill="#3056D3"/>
</svg>
