<svg width="28" height="19" viewBox="0 0 28 19" fill="none" xmlns="http://www.w3.org/2000/svg">
<g clip-path="url(#clip0_110_29)">
<path d="M25.3636 0H2.63636C1.18182 0 0 1.16785 0 2.6052V16.3948C0 17.8322 1.18182 19 2.63636 19H25.3636C26.8182 19 28 17.8322 28 16.3948V2.6052C28 1.16785 26.8182 0 25.3636 0ZM25.3636 1.5721C25.5909 1.5721 25.7727 1.61702 25.9545 1.75177L14.6364 8.53428C14.2273 8.75886 13.7727 8.75886 13.3636 8.53428L2.04545 1.75177C2.22727 1.66194 2.40909 1.5721 2.63636 1.5721H25.3636ZM25.3636 17.383H2.63636C2.09091 17.383 1.59091 16.9338 1.59091 16.3499V3.32388L12.5 9.8818C12.9545 10.1513 13.4545 10.2861 13.9545 10.2861C14.4545 10.2861 14.9545 10.1513 15.4091 9.8818L26.3182 3.32388V16.3499C26.4091 16.9338 25.9091 17.383 25.3636 17.383Z" fill="black"/>
</g>
<defs>
<clipPath id="clip0_110_29">
<rect width="28" height="19" fill="white"/>
</clipPath>
</defs>
</svg>
