<svg width="34" height="134" viewBox="0 0 34 134" fill="none" xmlns="http://www.w3.org/2000/svg">
<g clip-path="url(#clip0_110_33)">
<path d="M31.9993 130.333C31.0788 130.333 30.3326 131.079 30.3326 132C30.3326 132.92 31.0788 133.667 31.9993 133.667C32.9198 133.667 33.666 132.92 33.666 132C33.666 131.079 32.9198 130.333 31.9993 130.333Z" fill="#13C296"/>
<path d="M31.9993 115.666C31.0788 115.666 30.3326 116.412 30.3326 117.333C30.3326 118.253 31.0788 119 31.9993 119C32.9198 119 33.666 118.253 33.666 117.333C33.666 116.412 32.9198 115.666 31.9993 115.666Z" fill="#13C296"/>
<path d="M31.9993 101C31.0788 101 30.3326 101.746 30.3326 102.667C30.3326 103.587 31.0788 104.334 31.9993 104.334C32.9198 104.334 33.666 103.587 33.666 102.667C33.666 101.746 32.9198 101 31.9993 101Z" fill="#13C296"/>
<path d="M31.9993 86.3333C31.0788 86.3333 30.3326 87.0795 30.3326 88C30.3326 88.9204 31.0788 89.6666 31.9993 89.6666C32.9198 89.6666 33.666 88.9204 33.666 88C33.666 87.0795 32.9198 86.3333 31.9993 86.3333Z" fill="#13C296"/>
<path d="M31.9993 71.6667C31.0788 71.6667 30.3326 72.4129 30.3326 73.3333C30.3326 74.2538 31.0788 75 31.9993 75C32.9198 75 33.666 74.2538 33.666 73.3333C33.666 72.4129 32.9198 71.6667 31.9993 71.6667Z" fill="#13C296"/>
<path d="M31.9993 43.3333C31.0788 43.3333 30.3326 44.0795 30.3326 45C30.3326 45.9204 31.0788 46.6666 31.9993 46.6666C32.9198 46.6666 33.666 45.9204 33.666 45C33.666 44.0795 32.9198 43.3333 31.9993 43.3333Z" fill="#13C296"/>
<path d="M31.9993 14.3333C31.0788 14.3333 30.3326 15.0795 30.3326 16C30.3326 16.9204 31.0788 17.6666 31.9993 17.6666C32.9198 17.6666 33.666 16.9204 33.666 16C33.666 15.0795 32.9198 14.3333 31.9993 14.3333Z" fill="#13C296"/>
<path d="M31.9993 57.3333C31.0788 57.3333 30.3326 58.0795 30.3326 59C30.3326 59.9204 31.0788 60.6666 31.9993 60.6666C32.9198 60.6666 33.666 59.9204 33.666 59C33.666 58.0795 32.9198 57.3333 31.9993 57.3333Z" fill="#13C296"/>
<path d="M31.9993 28.9999C31.0788 28.9999 30.3326 29.7461 30.3326 30.6666C30.3326 31.5871 31.0788 32.3333 31.9993 32.3333C32.9198 32.3333 33.666 31.5871 33.666 30.6666C33.666 29.7461 32.9198 28.9999 31.9993 28.9999Z" fill="#13C296"/>
<path d="M31.9993 3.40939e-05C31.0788 3.40939e-05 30.3326 0.746228 30.3326 1.6667C30.3326 2.58718 31.0788 3.33337 31.9993 3.33337C32.9198 3.33337 33.666 2.58718 33.666 1.6667C33.666 0.746228 32.9198 3.40939e-05 31.9993 3.40939e-05Z" fill="#13C296"/>
<path d="M17.3333 130.333C16.4128 130.333 15.6666 131.079 15.6666 132C15.6666 132.92 16.4128 133.667 17.3333 133.667C18.2538 133.667 19 132.92 19 132C19 131.079 18.2538 130.333 17.3333 130.333Z" fill="#13C296"/>
<path d="M17.3333 115.666C16.4128 115.666 15.6666 116.412 15.6666 117.333C15.6666 118.253 16.4128 119 17.3333 119C18.2538 119 19 118.253 19 117.333C19 116.412 18.2538 115.666 17.3333 115.666Z" fill="#13C296"/>
<path d="M17.3333 101C16.4128 101 15.6666 101.746 15.6666 102.667C15.6666 103.587 16.4128 104.334 17.3333 104.334C18.2538 104.334 19 103.587 19 102.667C19 101.746 18.2538 101 17.3333 101Z" fill="#13C296"/>
<path d="M17.3333 86.3333C16.4128 86.3333 15.6666 87.0795 15.6666 88C15.6666 88.9204 16.4128 89.6666 17.3333 89.6666C18.2538 89.6666 19 88.9204 19 88C19 87.0795 18.2538 86.3333 17.3333 86.3333Z" fill="#13C296"/>
<path d="M17.3333 71.6667C16.4128 71.6667 15.6666 72.4129 15.6666 73.3333C15.6666 74.2538 16.4128 75 17.3333 75C18.2538 75 19 74.2538 19 73.3333C19 72.4129 18.2538 71.6667 17.3333 71.6667Z" fill="#13C296"/>
<path d="M17.3333 43.3333C16.4128 43.3333 15.6666 44.0795 15.6666 45C15.6666 45.9204 16.4128 46.6666 17.3333 46.6666C18.2538 46.6666 19 45.9204 19 45C19 44.0795 18.2538 43.3333 17.3333 43.3333Z" fill="#13C296"/>
<path d="M17.3333 14.3333C16.4128 14.3333 15.6666 15.0795 15.6666 16C15.6666 16.9204 16.4128 17.6666 17.3333 17.6666C18.2538 17.6666 19 16.9204 19 16C19 15.0795 18.2538 14.3333 17.3333 14.3333Z" fill="#13C296"/>
<path d="M17.3333 57.3333C16.4128 57.3333 15.6666 58.0795 15.6666 59C15.6666 59.9204 16.4128 60.6666 17.3333 60.6666C18.2538 60.6666 19 59.9204 19 59C19 58.0795 18.2538 57.3333 17.3333 57.3333Z" fill="#13C296"/>
<path d="M17.3333 28.9999C16.4128 28.9999 15.6666 29.7461 15.6666 30.6666C15.6666 31.5871 16.4128 32.3333 17.3333 32.3333C18.2538 32.3333 19 31.5871 19 30.6666C19 29.7461 18.2538 28.9999 17.3333 28.9999Z" fill="#13C296"/>
<path d="M17.3333 3.40939e-05C16.4128 3.40939e-05 15.6666 0.746228 15.6666 1.6667C15.6666 2.58718 16.4128 3.33337 17.3333 3.33337C18.2538 3.33337 19 2.58718 19 1.6667C19 0.746228 18.2538 3.40939e-05 17.3333 3.40939e-05Z" fill="#13C296"/>
<path d="M2.66536 130.333C1.74488 130.333 0.998692 131.079 0.998692 132C0.998692 132.92 1.74488 133.667 2.66536 133.667C3.58584 133.667 4.33203 132.92 4.33203 132C4.33203 131.079 3.58584 130.333 2.66536 130.333Z" fill="#13C296"/>
<path d="M2.66536 115.666C1.74488 115.666 0.998692 116.412 0.998692 117.333C0.998692 118.253 1.74488 119 2.66536 119C3.58584 119 4.33203 118.253 4.33203 117.333C4.33203 116.412 3.58584 115.666 2.66536 115.666Z" fill="#13C296"/>
<path d="M2.66536 101C1.74488 101 0.998692 101.746 0.998692 102.667C0.998692 103.587 1.74488 104.334 2.66536 104.334C3.58584 104.334 4.33203 103.587 4.33203 102.667C4.33203 101.746 3.58584 101 2.66536 101Z" fill="#13C296"/>
<path d="M2.66536 86.3333C1.74488 86.3333 0.998692 87.0795 0.998692 88C0.998692 88.9204 1.74488 89.6666 2.66536 89.6666C3.58584 89.6666 4.33203 88.9204 4.33203 88C4.33203 87.0795 3.58584 86.3333 2.66536 86.3333Z" fill="#13C296"/>
<path d="M2.66536 71.6667C1.74488 71.6667 0.998692 72.4129 0.998692 73.3333C0.998692 74.2538 1.74488 75 2.66536 75C3.58584 75 4.33203 74.2538 4.33203 73.3333C4.33203 72.4129 3.58584 71.6667 2.66536 71.6667Z" fill="#13C296"/>
<path d="M2.66536 43.3333C1.74488 43.3333 0.998692 44.0795 0.998692 45C0.998692 45.9204 1.74488 46.6666 2.66536 46.6666C3.58584 46.6666 4.33203 45.9204 4.33203 45C4.33203 44.0795 3.58584 43.3333 2.66536 43.3333Z" fill="#13C296"/>
<path d="M2.66536 14.3333C1.74488 14.3333 0.998692 15.0795 0.998692 16C0.998692 16.9204 1.74488 17.6666 2.66536 17.6666C3.58584 17.6666 4.33203 16.9204 4.33203 16C4.33203 15.0795 3.58584 14.3333 2.66536 14.3333Z" fill="#13C296"/>
<path d="M2.66536 57.3333C1.74488 57.3333 0.998692 58.0795 0.998692 59C0.998692 59.9204 1.74488 60.6666 2.66536 60.6666C3.58584 60.6666 4.33203 59.9204 4.33203 59C4.33203 58.0795 3.58584 57.3333 2.66536 57.3333Z" fill="#13C296"/>
<path d="M2.66536 28.9999C1.74488 28.9999 0.998692 29.7461 0.998692 30.6666C0.998692 31.5871 1.74488 32.3333 2.66536 32.3333C3.58584 32.3333 4.33203 31.5871 4.33203 30.6666C4.33203 29.7461 3.58584 28.9999 2.66536 28.9999Z" fill="#13C296"/>
<path d="M2.66536 3.40939e-05C1.74488 3.40939e-05 0.998692 0.746228 0.998692 1.6667C0.998692 2.58718 1.74488 3.33337 2.66536 3.33337C3.58584 3.33337 4.33203 2.58718 4.33203 1.6667C4.33203 0.746228 3.58584 3.40939e-05 2.66536 3.40939e-05Z" fill="#13C296"/>
</g>
<defs>
<clipPath id="clip0_110_33">
<rect width="34" height="134" fill="white"/>
</clipPath>
</defs>
</svg>
