<svg width="24" height="26" viewBox="0 0 24 26" fill="none" xmlns="http://www.w3.org/2000/svg">
<g clip-path="url(#clip0_110_25)">
<path d="M22.6149 15.1386C22.5307 14.1704 21.7308 13.4968 20.7626 13.4968H2.82869C1.86042 13.4968 1.10265 14.2125 0.97636 15.1386L0.092295 23.9793C0.0501967 24.4845 0.21859 25.0317 0.555377 25.4106C0.892163 25.7895 1.39734 26 1.94462 26H21.6887C22.1939 26 22.6991 25.7895 23.078 25.4106C23.4148 25.0317 23.5832 24.5266 23.5411 23.9793L22.6149 15.1386ZM21.9413 24.4424C21.8992 24.4845 21.815 24.5687 21.6466 24.5687H1.94462C1.81833 24.5687 1.69203 24.4845 1.64993 24.4424C1.60783 24.4003 1.52364 24.3161 1.56574 24.1477L2.4498 15.2649C2.4498 15.0544 2.61819 14.9281 2.82869 14.9281H20.8047C21.0152 14.9281 21.1415 15.0544 21.1835 15.2649L22.0676 24.1477C22.0255 24.274 21.9834 24.4003 21.9413 24.4424Z" fill="black"/>
<path d="M11.7965 16.7805C10.1547 16.7805 8.84961 18.0855 8.84961 19.7273C8.84961 21.3692 10.1547 22.6742 11.7965 22.6742C13.4383 22.6742 14.7434 21.3692 14.7434 19.7273C14.7434 18.0855 13.4383 16.7805 11.7965 16.7805ZM11.7965 21.2008C10.9966 21.2008 10.3231 20.5272 10.3231 19.7273C10.3231 18.9275 10.9966 18.2539 11.7965 18.2539C12.5964 18.2539 13.2699 18.9275 13.2699 19.7273C13.2699 20.5272 12.5964 21.2008 11.7965 21.2008Z" fill="black"/>
<path d="M1.10265 7.85562C1.18684 9.70794 2.82868 10.4657 3.67064 10.4657H6.61752C6.65962 10.4657 6.65962 10.4657 6.65962 10.4657C7.92257 10.3815 9.18552 9.53955 9.18552 7.85562V6.84526C10.5748 6.84526 13.7742 6.84526 15.1635 6.84526V7.85562C15.1635 9.53955 16.4264 10.3815 17.6894 10.4657H17.7315H20.6363C21.4782 10.4657 23.1201 9.70794 23.2043 7.85562C23.2043 7.72932 23.2043 7.26624 23.2043 6.84526C23.2043 6.50847 23.2043 6.21378 23.2043 6.17169C23.2043 6.12959 23.2043 6.08749 23.2043 6.08749C23.078 4.90874 22.657 3.94047 21.9413 3.18271L21.8992 3.14061C20.8468 2.17235 19.5838 1.62507 18.6155 1.28828C15.795 0.193726 12.2587 0.193726 12.0903 0.193726C9.6065 0.235824 8.00677 0.446315 5.60716 1.28828C4.681 1.58297 3.41805 2.13025 2.36559 3.09851L2.3235 3.14061C1.60782 3.89838 1.18684 4.86664 1.06055 6.04539C1.06055 6.08749 1.06055 6.12959 1.06055 6.12959C1.06055 6.21378 1.06055 6.46637 1.06055 6.80316C1.10265 7.18204 1.10265 7.68722 1.10265 7.85562ZM3.37595 4.15097C4.21792 3.3932 5.27038 2.93012 6.15444 2.59333C8.34355 1.79346 9.7749 1.62507 12.1745 1.58297C12.3429 1.58297 15.6266 1.62507 18.1525 2.59333C19.0365 2.93012 20.089 3.3511 20.931 4.15097C21.394 4.65615 21.6887 5.32972 21.7729 6.12959C21.7729 6.25588 21.7729 6.46637 21.7729 6.80316C21.7729 7.22414 21.7729 7.68722 21.7729 7.81352C21.7308 8.78178 20.8047 8.99227 20.6784 8.99227H17.7736C17.3526 8.95017 16.679 8.78178 16.679 7.85562V6.12959C16.679 5.7928 16.4685 5.54021 16.1738 5.41392C15.9213 5.32972 8.55405 5.32972 8.30146 5.41392C8.00677 5.49811 7.79628 5.7928 7.79628 6.12959V7.85562C7.79628 8.78178 7.1227 8.95017 6.70172 8.99227H3.79694C3.67064 8.99227 2.74448 8.78178 2.70238 7.81352C2.70238 7.68722 2.70238 7.22414 2.70238 6.80316C2.70238 6.46637 2.70238 6.29798 2.70238 6.17169C2.61818 5.32972 2.91287 4.65615 3.37595 4.15097Z" fill="black"/>
</g>
<defs>
<clipPath id="clip0_110_25">
<rect width="24" height="26" fill="white"/>
</clipPath>
</defs>
</svg>
