<svg width="107" height="134" viewBox="0 0 107 134" fill="none" xmlns="http://www.w3.org/2000/svg">
<g clip-path="url(#clip0_110_64)">
<path d="M104.999 130.333C104.079 130.333 103.332 131.079 103.332 132C103.332 132.92 104.079 133.667 104.999 133.667C105.919 133.667 106.666 132.92 106.666 132C106.666 131.079 105.919 130.333 104.999 130.333Z" fill="#13C296"/>
<path d="M104.999 115.666C104.079 115.666 103.332 116.412 103.332 117.333C103.332 118.253 104.079 119 104.999 119C105.919 119 106.666 118.253 106.666 117.333C106.666 116.412 105.919 115.666 104.999 115.666Z" fill="#13C296"/>
<path d="M104.999 101C104.079 101 103.332 101.746 103.332 102.667C103.332 103.587 104.079 104.334 104.999 104.334C105.919 104.334 106.666 103.587 106.666 102.667C106.666 101.746 105.919 101 104.999 101Z" fill="#13C296"/>
<path d="M104.999 86.3333C104.079 86.3333 103.332 87.0795 103.332 88C103.332 88.9204 104.079 89.6666 104.999 89.6666C105.919 89.6666 106.666 88.9204 106.666 88C106.666 87.0795 105.919 86.3333 104.999 86.3333Z" fill="#13C296"/>
<path d="M104.999 71.6667C104.079 71.6667 103.332 72.4129 103.332 73.3333C103.332 74.2538 104.079 75 104.999 75C105.919 75 106.666 74.2538 106.666 73.3333C106.666 72.4129 105.919 71.6667 104.999 71.6667Z" fill="#13C296"/>
<path d="M104.999 43.3333C104.079 43.3333 103.332 44.0795 103.332 45C103.332 45.9204 104.079 46.6666 104.999 46.6666C105.919 46.6666 106.666 45.9204 106.666 45C106.666 44.0795 105.919 43.3333 104.999 43.3333Z" fill="#13C296"/>
<path d="M104.999 14.3333C104.079 14.3333 103.332 15.0795 103.332 16C103.332 16.9204 104.079 17.6666 104.999 17.6666C105.919 17.6666 106.666 16.9204 106.666 16C106.666 15.0795 105.919 14.3333 104.999 14.3333Z" fill="#13C296"/>
<path d="M104.999 57.3333C104.079 57.3333 103.332 58.0795 103.332 59C103.332 59.9204 104.079 60.6666 104.999 60.6666C105.919 60.6666 106.666 59.9204 106.666 59C106.666 58.0795 105.919 57.3333 104.999 57.3333Z" fill="#13C296"/>
<path d="M104.999 28.9999C104.079 28.9999 103.332 29.7461 103.332 30.6666C103.332 31.5871 104.079 32.3333 104.999 32.3333C105.919 32.3333 106.666 31.5871 106.666 30.6666C106.666 29.7461 105.919 28.9999 104.999 28.9999Z" fill="#13C296"/>
<path d="M104.999 3.40939e-05C104.079 3.40939e-05 103.332 0.746228 103.332 1.6667C103.332 2.58718 104.079 3.33337 104.999 3.33337C105.919 3.33337 106.666 2.58718 106.666 1.6667C106.666 0.746228 105.919 3.40939e-05 104.999 3.40939e-05Z" fill="#13C296"/>
<path d="M90.3333 130.333C89.4129 130.333 88.6667 131.079 88.6667 132C88.6667 132.92 89.4129 133.667 90.3333 133.667C91.2538 133.667 92 132.92 92 132C92 131.079 91.2538 130.333 90.3333 130.333Z" fill="#13C296"/>
<path d="M90.3333 115.666C89.4129 115.666 88.6667 116.412 88.6667 117.333C88.6667 118.253 89.4129 119 90.3333 119C91.2538 119 92 118.253 92 117.333C92 116.412 91.2538 115.666 90.3333 115.666Z" fill="#13C296"/>
<path d="M90.3333 101C89.4129 101 88.6667 101.746 88.6667 102.667C88.6667 103.587 89.4129 104.334 90.3333 104.334C91.2538 104.334 92 103.587 92 102.667C92 101.746 91.2538 101 90.3333 101Z" fill="#13C296"/>
<path d="M90.3333 86.3333C89.4129 86.3333 88.6667 87.0795 88.6667 88C88.6667 88.9204 89.4129 89.6666 90.3333 89.6666C91.2538 89.6666 92 88.9204 92 88C92 87.0795 91.2538 86.3333 90.3333 86.3333Z" fill="#13C296"/>
<path d="M90.3333 71.6667C89.4129 71.6667 88.6667 72.4129 88.6667 73.3333C88.6667 74.2538 89.4129 75 90.3333 75C91.2538 75 92 74.2538 92 73.3333C92 72.4129 91.2538 71.6667 90.3333 71.6667Z" fill="#13C296"/>
<path d="M90.3333 43.3333C89.4129 43.3333 88.6667 44.0795 88.6667 45C88.6667 45.9204 89.4129 46.6666 90.3333 46.6666C91.2538 46.6666 92 45.9204 92 45C92 44.0795 91.2538 43.3333 90.3333 43.3333Z" fill="#13C296"/>
<path d="M90.3333 14.3333C89.4129 14.3333 88.6667 15.0795 88.6667 16C88.6667 16.9204 89.4129 17.6666 90.3333 17.6666C91.2538 17.6666 92 16.9204 92 16C92 15.0795 91.2538 14.3333 90.3333 14.3333Z" fill="#13C296"/>
<path d="M90.3333 57.3333C89.4129 57.3333 88.6667 58.0795 88.6667 59C88.6667 59.9204 89.4129 60.6666 90.3333 60.6666C91.2538 60.6666 92 59.9204 92 59C92 58.0795 91.2538 57.3333 90.3333 57.3333Z" fill="#13C296"/>
<path d="M90.3333 28.9999C89.4129 28.9999 88.6667 29.7461 88.6667 30.6666C88.6667 31.5871 89.4129 32.3333 90.3333 32.3333C91.2538 32.3333 92 31.5871 92 30.6666C92 29.7461 91.2538 28.9999 90.3333 28.9999Z" fill="#13C296"/>
<path d="M90.3333 3.40939e-05C89.4129 3.40939e-05 88.6667 0.746228 88.6667 1.6667C88.6667 2.58718 89.4129 3.33337 90.3333 3.33337C91.2538 3.33337 92 2.58718 92 1.6667C92 0.746228 91.2538 3.40939e-05 90.3333 3.40939e-05Z" fill="#13C296"/>
<path d="M75.6654 130.333C74.745 130.333 73.9988 131.079 73.9988 132C73.9988 132.92 74.745 133.667 75.6654 133.667C76.5859 133.667 77.3321 132.92 77.3321 132C77.3321 131.079 76.5859 130.333 75.6654 130.333Z" fill="#13C296"/>
<path d="M31.9993 130.333C31.0788 130.333 30.3326 131.079 30.3326 132C30.3326 132.92 31.0788 133.667 31.9993 133.667C32.9198 133.667 33.666 132.92 33.666 132C33.666 131.079 32.9198 130.333 31.9993 130.333Z" fill="#13C296"/>
<path d="M75.6654 115.666C74.745 115.666 73.9988 116.412 73.9988 117.333C73.9988 118.253 74.745 119 75.6654 119C76.5859 119 77.3321 118.253 77.3321 117.333C77.3321 116.412 76.5859 115.666 75.6654 115.666Z" fill="#13C296"/>
<path d="M31.9993 115.666C31.0788 115.666 30.3326 116.412 30.3326 117.333C30.3326 118.253 31.0788 119 31.9993 119C32.9198 119 33.666 118.253 33.666 117.333C33.666 116.412 32.9198 115.666 31.9993 115.666Z" fill="#13C296"/>
<path d="M75.6654 101C74.745 101 73.9988 101.746 73.9988 102.667C73.9988 103.587 74.745 104.334 75.6654 104.334C76.5859 104.334 77.3321 103.587 77.3321 102.667C77.3321 101.746 76.5859 101 75.6654 101Z" fill="#13C296"/>
<path d="M31.9993 101C31.0788 101 30.3326 101.746 30.3326 102.667C30.3326 103.587 31.0788 104.334 31.9993 104.334C32.9198 104.334 33.666 103.587 33.666 102.667C33.666 101.746 32.9198 101 31.9993 101Z" fill="#13C296"/>
<path d="M75.6654 86.3333C74.745 86.3333 73.9988 87.0795 73.9988 88C73.9988 88.9204 74.745 89.6666 75.6654 89.6666C76.5859 89.6666 77.3321 88.9204 77.3321 88C77.3321 87.0795 76.5859 86.3333 75.6654 86.3333Z" fill="#13C296"/>
<path d="M31.9993 86.3333C31.0788 86.3333 30.3326 87.0795 30.3326 88C30.3326 88.9204 31.0788 89.6666 31.9993 89.6666C32.9198 89.6666 33.666 88.9204 33.666 88C33.666 87.0795 32.9198 86.3333 31.9993 86.3333Z" fill="#13C296"/>
<path d="M75.6654 71.6667C74.745 71.6667 73.9988 72.4129 73.9988 73.3333C73.9988 74.2538 74.745 75 75.6654 75C76.5859 75 77.3321 74.2538 77.3321 73.3333C77.3321 72.4129 76.5859 71.6667 75.6654 71.6667Z" fill="#13C296"/>
<path d="M31.9993 71.6667C31.0788 71.6667 30.3326 72.4129 30.3326 73.3333C30.3326 74.2538 31.0788 75 31.9993 75C32.9198 75 33.666 74.2538 33.666 73.3333C33.666 72.4129 32.9198 71.6667 31.9993 71.6667Z" fill="#13C296"/>
<path d="M75.6654 43.3333C74.745 43.3333 73.9988 44.0795 73.9988 45C73.9988 45.9204 74.745 46.6666 75.6654 46.6666C76.5859 46.6666 77.3321 45.9204 77.3321 45C77.3321 44.0795 76.5859 43.3333 75.6654 43.3333Z" fill="#13C296"/>
<path d="M31.9993 43.3333C31.0788 43.3333 30.3326 44.0795 30.3326 45C30.3326 45.9204 31.0788 46.6666 31.9993 46.6666C32.9198 46.6666 33.666 45.9204 33.666 45C33.666 44.0795 32.9198 43.3333 31.9993 43.3333Z" fill="#13C296"/>
<path d="M75.6654 14.3333C74.745 14.3333 73.9988 15.0795 73.9988 16C73.9988 16.9204 74.745 17.6666 75.6654 17.6666C76.5859 17.6666 77.3321 16.9204 77.3321 16C77.3321 15.0795 76.5859 14.3333 75.6654 14.3333Z" fill="#13C296"/>
<path d="M31.9993 14.3333C31.0788 14.3333 30.3326 15.0795 30.3326 16C30.3326 16.9204 31.0788 17.6666 31.9993 17.6666C32.9198 17.6666 33.666 16.9204 33.666 16C33.666 15.0795 32.9198 14.3333 31.9993 14.3333Z" fill="#13C296"/>
<path d="M75.6654 57.3333C74.745 57.3333 73.9988 58.0795 73.9988 59C73.9988 59.9204 74.745 60.6666 75.6654 60.6666C76.5859 60.6666 77.3321 59.9204 77.3321 59C77.3321 58.0795 76.5859 57.3333 75.6654 57.3333Z" fill="#13C296"/>
<path d="M31.9993 57.3333C31.0788 57.3333 30.3326 58.0795 30.3326 59C30.3326 59.9204 31.0788 60.6666 31.9993 60.6666C32.9198 60.6666 33.666 59.9204 33.666 59C33.666 58.0795 32.9198 57.3333 31.9993 57.3333Z" fill="#13C296"/>
<path d="M75.6654 28.9999C74.745 28.9999 73.9988 29.7461 73.9988 30.6666C73.9988 31.5871 74.745 32.3333 75.6654 32.3333C76.5859 32.3333 77.3321 31.5871 77.3321 30.6666C77.3321 29.7461 76.5859 28.9999 75.6654 28.9999Z" fill="#13C296"/>
<path d="M31.9993 28.9999C31.0788 28.9999 30.3326 29.7461 30.3326 30.6666C30.3326 31.5871 31.0788 32.3333 31.9993 32.3333C32.9198 32.3333 33.666 31.5871 33.666 30.6666C33.666 29.7461 32.9198 28.9999 31.9993 28.9999Z" fill="#13C296"/>
<path d="M75.6654 3.40939e-05C74.745 3.40939e-05 73.9988 0.746228 73.9988 1.6667C73.9988 2.58718 74.745 3.33337 75.6654 3.33337C76.5859 3.33337 77.3321 2.58718 77.3321 1.6667C77.3321 0.746228 76.5859 3.40939e-05 75.6654 3.40939e-05Z" fill="#13C296"/>
<path d="M31.9993 3.40939e-05C31.0788 3.40939e-05 30.3326 0.746228 30.3326 1.6667C30.3326 2.58718 31.0788 3.33337 31.9993 3.33337C32.9198 3.33337 33.666 2.58718 33.666 1.6667C33.666 0.746228 32.9198 3.40939e-05 31.9993 3.40939e-05Z" fill="#13C296"/>
<path d="M60.9993 130.333C60.0788 130.333 59.3326 131.079 59.3326 132C59.3326 132.92 60.0788 133.667 60.9993 133.667C61.9198 133.667 62.666 132.92 62.666 132C62.666 131.079 61.9198 130.333 60.9993 130.333Z" fill="#13C296"/>
<path d="M17.3333 130.333C16.4129 130.333 15.6667 131.079 15.6667 132C15.6667 132.92 16.4129 133.667 17.3333 133.667C18.2538 133.667 19 132.92 19 132C19 131.079 18.2538 130.333 17.3333 130.333Z" fill="#13C296"/>
<path d="M60.9993 115.666C60.0788 115.666 59.3326 116.412 59.3326 117.333C59.3326 118.253 60.0788 119 60.9993 119C61.9198 119 62.666 118.253 62.666 117.333C62.666 116.412 61.9198 115.666 60.9993 115.666Z" fill="#13C296"/>
<path d="M17.3333 115.666C16.4129 115.666 15.6667 116.412 15.6667 117.333C15.6667 118.253 16.4129 119 17.3333 119C18.2538 119 19 118.253 19 117.333C19 116.412 18.2538 115.666 17.3333 115.666Z" fill="#13C296"/>
<path d="M60.9993 101C60.0788 101 59.3326 101.746 59.3326 102.667C59.3326 103.587 60.0788 104.334 60.9993 104.334C61.9198 104.334 62.666 103.587 62.666 102.667C62.666 101.746 61.9198 101 60.9993 101Z" fill="#13C296"/>
<path d="M17.3333 101C16.4129 101 15.6667 101.746 15.6667 102.667C15.6667 103.587 16.4129 104.334 17.3333 104.334C18.2538 104.334 19 103.587 19 102.667C19 101.746 18.2538 101 17.3333 101Z" fill="#13C296"/>
<path d="M60.9993 86.3333C60.0788 86.3333 59.3326 87.0795 59.3326 88C59.3326 88.9204 60.0788 89.6666 60.9993 89.6666C61.9198 89.6666 62.666 88.9204 62.666 88C62.666 87.0795 61.9198 86.3333 60.9993 86.3333Z" fill="#13C296"/>
<path d="M17.3333 86.3333C16.4129 86.3333 15.6667 87.0795 15.6667 88C15.6667 88.9204 16.4129 89.6666 17.3333 89.6666C18.2538 89.6666 19 88.9204 19 88C19 87.0795 18.2538 86.3333 17.3333 86.3333Z" fill="#13C296"/>
<path d="M60.9993 71.6667C60.0788 71.6667 59.3326 72.4129 59.3326 73.3333C59.3326 74.2538 60.0788 75 60.9993 75C61.9198 75 62.666 74.2538 62.666 73.3333C62.666 72.4129 61.9198 71.6667 60.9993 71.6667Z" fill="#13C296"/>
<path d="M17.3333 71.6667C16.4129 71.6667 15.6667 72.4129 15.6667 73.3333C15.6667 74.2538 16.4129 75 17.3333 75C18.2538 75 19 74.2538 19 73.3333C19 72.4129 18.2538 71.6667 17.3333 71.6667Z" fill="#13C296"/>
<path d="M60.9993 43.3333C60.0788 43.3333 59.3326 44.0795 59.3326 45C59.3326 45.9204 60.0788 46.6666 60.9993 46.6666C61.9198 46.6666 62.666 45.9204 62.666 45C62.666 44.0795 61.9198 43.3333 60.9993 43.3333Z" fill="#13C296"/>
<path d="M17.3333 43.3333C16.4129 43.3333 15.6667 44.0795 15.6667 45C15.6667 45.9204 16.4129 46.6666 17.3333 46.6666C18.2538 46.6666 19 45.9204 19 45C19 44.0795 18.2538 43.3333 17.3333 43.3333Z" fill="#13C296"/>
<path d="M60.9993 14.3333C60.0788 14.3333 59.3326 15.0795 59.3326 16C59.3326 16.9204 60.0788 17.6666 60.9993 17.6666C61.9198 17.6666 62.666 16.9204 62.666 16C62.666 15.0795 61.9198 14.3333 60.9993 14.3333Z" fill="#13C296"/>
<path d="M17.3333 14.3333C16.4129 14.3333 15.6667 15.0795 15.6667 16C15.6667 16.9204 16.4129 17.6666 17.3333 17.6666C18.2538 17.6666 19 16.9204 19 16C19 15.0795 18.2538 14.3333 17.3333 14.3333Z" fill="#13C296"/>
<path d="M60.9993 57.3333C60.0788 57.3333 59.3326 58.0795 59.3326 59C59.3326 59.9204 60.0788 60.6666 60.9993 60.6666C61.9198 60.6666 62.666 59.9204 62.666 59C62.666 58.0795 61.9198 57.3333 60.9993 57.3333Z" fill="#13C296"/>
<path d="M17.3333 57.3333C16.4129 57.3333 15.6667 58.0795 15.6667 59C15.6667 59.9204 16.4129 60.6666 17.3333 60.6666C18.2538 60.6666 19 59.9204 19 59C19 58.0795 18.2538 57.3333 17.3333 57.3333Z" fill="#13C296"/>
<path d="M60.9993 28.9999C60.0788 28.9999 59.3326 29.7461 59.3326 30.6666C59.3326 31.5871 60.0788 32.3333 60.9993 32.3333C61.9198 32.3333 62.666 31.5871 62.666 30.6666C62.666 29.7461 61.9198 28.9999 60.9993 28.9999Z" fill="#13C296"/>
<path d="M17.3333 28.9999C16.4129 28.9999 15.6667 29.7461 15.6667 30.6666C15.6667 31.5871 16.4129 32.3333 17.3333 32.3333C18.2538 32.3333 19 31.5871 19 30.6666C19 29.7461 18.2538 28.9999 17.3333 28.9999Z" fill="#13C296"/>
<path d="M60.9993 3.40939e-05C60.0788 3.40939e-05 59.3326 0.746228 59.3326 1.6667C59.3326 2.58718 60.0788 3.33337 60.9993 3.33337C61.9198 3.33337 62.666 2.58718 62.666 1.6667C62.666 0.746228 61.9198 3.40939e-05 60.9993 3.40939e-05Z" fill="#13C296"/>
<path d="M17.3333 3.40939e-05C16.4129 3.40939e-05 15.6667 0.746228 15.6667 1.6667C15.6667 2.58718 16.4129 3.33337 17.3333 3.33337C18.2538 3.33337 19 2.58718 19 1.6667C19 0.746228 18.2538 3.40939e-05 17.3333 3.40939e-05Z" fill="#13C296"/>
<path d="M46.3333 130.333C45.4129 130.333 44.6667 131.079 44.6667 132C44.6667 132.92 45.4129 133.667 46.3333 133.667C47.2538 133.667 48 132.92 48 132C48 131.079 47.2538 130.333 46.3333 130.333Z" fill="#13C296"/>
<path d="M2.66536 130.333C1.74488 130.333 0.998692 131.079 0.998692 132C0.998692 132.92 1.74488 133.667 2.66536 133.667C3.58584 133.667 4.33203 132.92 4.33203 132C4.33203 131.079 3.58584 130.333 2.66536 130.333Z" fill="#13C296"/>
<path d="M46.3333 115.666C45.4129 115.666 44.6667 116.412 44.6667 117.333C44.6667 118.253 45.4129 119 46.3333 119C47.2538 119 48 118.253 48 117.333C48 116.412 47.2538 115.666 46.3333 115.666Z" fill="#13C296"/>
<path d="M2.66536 115.666C1.74488 115.666 0.998692 116.412 0.998692 117.333C0.998692 118.253 1.74488 119 2.66536 119C3.58584 119 4.33203 118.253 4.33203 117.333C4.33203 116.412 3.58584 115.666 2.66536 115.666Z" fill="#13C296"/>
<path d="M46.3333 101C45.4129 101 44.6667 101.746 44.6667 102.667C44.6667 103.587 45.4129 104.334 46.3333 104.334C47.2538 104.334 48 103.587 48 102.667C48 101.746 47.2538 101 46.3333 101Z" fill="#13C296"/>
<path d="M2.66536 101C1.74488 101 0.998692 101.746 0.998692 102.667C0.998692 103.587 1.74488 104.334 2.66536 104.334C3.58584 104.334 4.33203 103.587 4.33203 102.667C4.33203 101.746 3.58584 101 2.66536 101Z" fill="#13C296"/>
<path d="M46.3333 86.3333C45.4129 86.3333 44.6667 87.0795 44.6667 88C44.6667 88.9204 45.4129 89.6666 46.3333 89.6666C47.2538 89.6666 48 88.9204 48 88C48 87.0795 47.2538 86.3333 46.3333 86.3333Z" fill="#13C296"/>
<path d="M2.66536 86.3333C1.74488 86.3333 0.998692 87.0795 0.998692 88C0.998692 88.9204 1.74488 89.6666 2.66536 89.6666C3.58584 89.6666 4.33203 88.9204 4.33203 88C4.33203 87.0795 3.58584 86.3333 2.66536 86.3333Z" fill="#13C296"/>
<path d="M46.3333 71.6667C45.4129 71.6667 44.6667 72.4129 44.6667 73.3333C44.6667 74.2538 45.4129 75 46.3333 75C47.2538 75 48 74.2538 48 73.3333C48 72.4129 47.2538 71.6667 46.3333 71.6667Z" fill="#13C296"/>
<path d="M2.66536 71.6667C1.74488 71.6667 0.998692 72.4129 0.998692 73.3333C0.998692 74.2538 1.74488 75 2.66536 75C3.58584 75 4.33203 74.2538 4.33203 73.3333C4.33203 72.4129 3.58584 71.6667 2.66536 71.6667Z" fill="#13C296"/>
<path d="M46.3333 43.3333C45.4129 43.3333 44.6667 44.0795 44.6667 45C44.6667 45.9204 45.4129 46.6666 46.3333 46.6666C47.2538 46.6666 48 45.9204 48 45C48 44.0795 47.2538 43.3333 46.3333 43.3333Z" fill="#13C296"/>
<path d="M2.66536 43.3333C1.74488 43.3333 0.998692 44.0795 0.998692 45C0.998692 45.9204 1.74488 46.6666 2.66536 46.6666C3.58584 46.6666 4.33203 45.9204 4.33203 45C4.33203 44.0795 3.58584 43.3333 2.66536 43.3333Z" fill="#13C296"/>
<path d="M46.3333 14.3333C45.4129 14.3333 44.6667 15.0795 44.6667 16C44.6667 16.9204 45.4129 17.6666 46.3333 17.6666C47.2538 17.6666 48 16.9204 48 16C48 15.0795 47.2538 14.3333 46.3333 14.3333Z" fill="#13C296"/>
<path d="M2.66536 14.3333C1.74488 14.3333 0.998692 15.0795 0.998692 16C0.998692 16.9204 1.74488 17.6666 2.66536 17.6666C3.58584 17.6666 4.33203 16.9204 4.33203 16C4.33203 15.0795 3.58584 14.3333 2.66536 14.3333Z" fill="#13C296"/>
<path d="M46.3333 57.3333C45.4129 57.3333 44.6667 58.0795 44.6667 59C44.6667 59.9204 45.4129 60.6666 46.3333 60.6666C47.2538 60.6666 48 59.9204 48 59C48 58.0795 47.2538 57.3333 46.3333 57.3333Z" fill="#13C296"/>
<path d="M2.66536 57.3333C1.74488 57.3333 0.998692 58.0795 0.998692 59C0.998692 59.9204 1.74488 60.6666 2.66536 60.6666C3.58584 60.6666 4.33203 59.9204 4.33203 59C4.33203 58.0795 3.58584 57.3333 2.66536 57.3333Z" fill="#13C296"/>
<path d="M46.3333 28.9999C45.4129 28.9999 44.6667 29.7461 44.6667 30.6666C44.6667 31.5871 45.4129 32.3333 46.3333 32.3333C47.2538 32.3333 48 31.5871 48 30.6666C48 29.7461 47.2538 28.9999 46.3333 28.9999Z" fill="#13C296"/>
<path d="M2.66536 28.9999C1.74488 28.9999 0.998692 29.7461 0.998692 30.6666C0.998692 31.5871 1.74488 32.3333 2.66536 32.3333C3.58584 32.3333 4.33203 31.5871 4.33203 30.6666C4.33203 29.7461 3.58584 28.9999 2.66536 28.9999Z" fill="#13C296"/>
<path d="M46.3333 3.40939e-05C45.4129 3.40939e-05 44.6667 0.746228 44.6667 1.6667C44.6667 2.58718 45.4129 3.33337 46.3333 3.33337C47.2538 3.33337 48 2.58718 48 1.6667C48 0.746228 47.2538 3.40939e-05 46.3333 3.40939e-05Z" fill="#13C296"/>
<path d="M2.66536 3.40939e-05C1.74488 3.40939e-05 0.998692 0.746228 0.998692 1.6667C0.998692 2.58718 1.74488 3.33337 2.66536 3.33337C3.58584 3.33337 4.33203 2.58718 4.33203 1.6667C4.33203 0.746228 3.58584 3.40939e-05 2.66536 3.40939e-05Z" fill="#13C296"/>
</g>
<defs>
<clipPath id="clip0_110_64">
<rect width="107" height="134" fill="white"/>
</clipPath>
</defs>
</svg>
